<svg width="46" height="54" viewBox="0 0 46 54" fill="none" xmlns="http://www.w3.org/2000/svg">
<g clip-path="url(#clip0)">
<path d="M42.848 2.80473H43.1677C43.5619 2.80473 43.8847 2.6732 43.8847 2.32541C43.8847 2.06383 43.6941 1.82168 43.1934 1.82168C43.0368 1.82168 42.9302 1.82168 42.8478 1.83315V2.80473H42.848ZM42.848 4.49446H42.3119V1.49831C42.5607 1.4626 42.8111 1.41377 43.2048 1.41377C43.6812 1.41377 43.9783 1.51126 44.1687 1.65592C44.3351 1.78745 44.4303 1.98891 44.4303 2.27824C44.4303 2.66173 44.1801 2.91184 43.8604 2.99638V3.01914C44.1204 3.06798 44.2866 3.3068 44.3465 3.7519C44.4177 4.21974 44.4772 4.39697 44.5258 4.49446H43.9783C43.9071 4.39697 43.8459 4.12244 43.7862 3.72914C43.7281 3.36692 43.5262 3.22392 43.1563 3.22392H42.8478V4.49446H42.848ZM43.3357 0.695621C42.1569 0.695621 41.2043 1.68996 41.2043 2.93626C41.2043 4.18256 42.1569 5.1769 43.347 5.1769C44.5256 5.18985 45.467 4.18256 45.467 2.93626C45.467 1.68996 44.5256 0.695621 43.347 0.695621H43.3357ZM43.347 0.240723C44.8212 0.240723 46 1.43985 46 2.92498C46 4.43452 44.8212 5.63198 43.3357 5.63198C41.8485 5.63198 40.6456 4.43452 40.6456 2.92498C40.6456 1.43985 41.8485 0.240723 43.3357 0.240723H43.347Z" fill="#596481"/>
<path d="M5.12334 48.2894L4.67605 45.6232C4.54847 44.8548 4.3854 43.6538 4.26112 42.8219H4.21259C4.08188 43.6601 3.89932 44.8951 3.7653 45.6297L3.284 48.2894H5.12334ZM3.04372 50.0266L2.46241 52.9854H0.314941L2.99371 40.6758H5.6256L8.05894 52.9854H5.90026L5.33182 50.0266H3.04372Z" fill="#596481"/>
<path d="M12.9467 47.4869C12.9467 47.3228 12.9467 47.131 12.9144 46.9554C12.8289 46.3477 12.5075 45.8003 11.9907 45.8003C11.1043 45.8003 10.7781 47.0855 10.7781 48.5885C10.7781 50.3156 11.2431 51.2987 11.96 51.2987C12.2878 51.2987 12.6656 51.1296 12.8708 50.4048C12.9208 50.2603 12.9467 50.067 12.9467 49.8411V47.4869ZM15.1508 40.3491V50.4327C15.1508 51.2319 15.1913 52.2151 15.2236 52.9836H13.3199L13.1956 51.9582H13.1504C12.8307 52.5905 12.1349 53.1281 11.3032 53.1281C9.48019 53.1281 8.57605 51.1037 8.57605 48.5477C8.57605 45.4331 9.92417 43.9186 11.3936 43.9186C12.1623 43.9186 12.6596 44.2972 12.91 44.845H12.9471V40.3491H15.1508Z" fill="#596481"/>
<path d="M19.7414 51.4273C20.5827 51.4273 20.7909 49.8317 20.7909 48.5107C20.7909 47.2547 20.5827 45.6183 19.7044 45.6183C18.7742 45.6183 18.5788 47.2547 18.5788 48.5107C18.5788 50.0267 18.8242 51.4273 19.7219 51.4273H19.7414ZM19.6995 53.1284C17.6682 53.1284 16.3942 51.4874 16.3942 48.5499C16.3942 45.3439 18.0298 43.9189 19.7511 43.9189C21.755 43.9189 23.0112 45.6399 23.0112 48.4979C23.0112 52.17 21.043 53.1284 19.7173 53.1284H19.6995Z" fill="#596481"/>
<path d="M26.4474 49.7989C26.4474 50.0215 26.4879 50.2296 26.5348 50.3691C26.7559 51.1152 27.1306 51.2987 27.4308 51.2987C28.2835 51.2987 28.6274 50.2115 28.6274 48.4729C28.6274 46.8903 28.264 45.8003 27.4211 45.8003C27.003 45.8003 26.6509 46.2571 26.5298 46.7477C26.4877 46.902 26.4474 47.1423 26.4474 47.308V49.7989ZM24.2432 40.3491H26.4472V44.996H26.4827C26.917 44.3102 27.4951 43.9186 28.3348 43.9186C29.9963 43.9186 30.8312 45.8197 30.8312 48.3057C30.8312 51.4467 29.5862 53.1281 27.973 53.1281C27.2043 53.1281 26.6925 52.7851 26.2307 51.9162H26.1842L26.0615 52.9836H24.1691C24.2014 52.2444 24.2432 51.2319 24.2432 50.4327V40.3491Z" fill="#596481"/>
<path d="M36.1132 47.6739C36.1246 46.4213 35.7595 45.5435 35.0603 45.5435C34.2626 45.5435 33.9234 46.7186 33.8993 47.6739H36.1132ZM33.8912 49.2421C33.9172 50.8554 34.7601 51.3804 35.8063 51.3804C36.4698 51.3804 37.0383 51.2322 37.4582 51.0733L37.7553 52.6689C37.1706 52.9221 36.268 53.0814 35.4024 53.0814C33.0369 53.0814 31.7451 51.4548 31.7451 48.6765C31.7451 45.695 33.2436 43.9043 35.2006 43.9043C37.0914 43.9043 38.1393 45.4869 38.1393 48.0703C38.1393 48.6617 38.115 48.9949 38.0762 49.2547L33.8912 49.2421Z" fill="#596481"/>
<path d="M24.0414 0.128418H38.1411V34.0954L24.0414 0.128418Z" fill="#596481"/>
<path d="M14.1077 0.12793H0V34.0949L14.1077 0.12793Z" fill="#596481"/>
<path d="M12.9096 27.2611L19.0762 12.644L28.0588 34.0933H22.1732L19.4862 27.2611H12.9096Z" fill="#596481"/>
</g>
<defs>
<clipPath id="clip0">
<rect width="46" height="53" fill="white" transform="translate(0 0.128418)"/>
</clipPath>
</defs>
</svg>
