<svg width="31" height="54" viewBox="0 0 31 54" fill="none" xmlns="http://www.w3.org/2000/svg">
<path d="M26.8747 0H4.0001C1.79528 0 0 1.7793 0 3.9645V50.0346C0 52.2207 1.79528 54 4.0001 54H26.8737C29.0795 54 30.8748 52.2207 30.8748 50.0355V3.9645C30.8748 1.7793 29.0795 0 26.8747 0ZM1.81616 7.2H29.0586V41.4H1.81616V7.2ZM4.0001 1.8H26.8737C28.0788 1.8 29.0586 2.7711 29.0586 3.9645V5.4H1.81616V3.9645C1.81616 2.7711 2.79598 1.8 4.0001 1.8ZM26.8747 52.2H4.0001C2.79598 52.2 1.81616 51.2289 1.81616 50.0355V43.2H29.0586V50.0355C29.0586 51.2289 28.0788 52.2 26.8747 52.2Z" fill="#A09ED5"/>
<path d="M15.4374 44.1001C13.4343 44.1001 11.8052 45.7147 11.8052 47.7C11.8052 49.6855 13.4343 51.3001 15.4374 51.3001C17.4407 51.3001 19.0698 49.6855 19.0698 47.7C19.0698 45.7147 17.4407 44.1001 15.4374 44.1001ZM15.4374 49.5001C14.4359 49.5001 13.6213 48.6928 13.6213 47.7C13.6213 46.7074 14.4359 45.9001 15.4374 45.9001C16.4391 45.9001 17.2537 46.7074 17.2537 47.7C17.2537 48.6928 16.4391 49.5001 15.4374 49.5001Z" fill="#A09ED5"/>
<path d="M11.805 4.5002H15.4373C15.9395 4.5002 16.3455 4.0979 16.3455 3.6002C16.3455 3.1025 15.9395 2.7002 15.4373 2.7002H11.805C11.3029 2.7002 10.897 3.1025 10.897 3.6002C10.897 4.0979 11.3029 4.5002 11.805 4.5002Z" fill="#A09ED5"/>
<path d="M18.1618 4.5002H19.0699C19.572 4.5002 19.9779 4.0979 19.9779 3.6002C19.9779 3.1025 19.572 2.7002 19.0699 2.7002H18.1618C17.6596 2.7002 17.2537 3.1025 17.2537 3.6002C17.2537 4.0979 17.6596 4.5002 18.1618 4.5002Z" fill="#A09ED5"/>
<path d="M7.67887 28.5958L7.63801 28.6336L8.5252 29.2708C8.55426 29.2915 8.58513 29.3086 8.61419 29.3293C8.78945 29.4535 8.96925 29.5705 9.15269 29.6857C9.26438 29.7559 9.37698 29.8234 9.4905 29.8891C9.66392 29.9899 9.83742 30.0889 10.0153 30.1807C10.1652 30.2581 10.3187 30.3283 10.4722 30.3994C10.6247 30.4696 10.7736 30.5443 10.9298 30.6082C11.234 30.7342 11.5436 30.8458 11.8569 30.9457C11.9659 30.9808 12.0785 31.0069 12.1884 31.0384C12.4236 31.1059 12.6597 31.168 12.8995 31.2202C13.0229 31.2472 13.1464 31.2706 13.2708 31.2931C13.516 31.339 13.7621 31.3759 14.011 31.4056C14.1235 31.4191 14.2352 31.4344 14.3478 31.4452C14.7084 31.4785 15.0715 31.5001 15.4375 31.5001C15.8035 31.5001 16.1658 31.4785 16.5263 31.4452C16.6399 31.4344 16.7506 31.4191 16.8632 31.4056C17.112 31.3759 17.3591 31.339 17.6042 31.2931C17.7277 31.2706 17.8503 31.2472 17.9729 31.2202C18.2153 31.1671 18.4542 31.105 18.6921 31.0366C18.7992 31.006 18.9082 30.9799 19.0145 30.9466C19.3287 30.8467 19.6392 30.7351 19.9452 30.6091C20.095 30.5479 20.2386 30.4759 20.3857 30.4084C20.5455 30.3346 20.7053 30.2617 20.8615 30.1807C21.0341 30.0916 21.202 29.9962 21.3691 29.899C21.4899 29.8288 21.6107 29.7568 21.7296 29.6821C21.9049 29.5723 22.0774 29.4598 22.2454 29.3419C22.2763 29.3203 22.3099 29.3014 22.3408 29.2789L23.2597 28.621L23.2143 28.5814C25.677 26.4349 27.2426 23.2984 27.2426 19.8001C27.2426 13.3489 21.9467 8.1001 15.4375 8.1001C8.92839 8.1001 3.63246 13.3489 3.63246 19.8001C3.63246 23.3065 5.20526 26.4502 7.67887 28.5958ZM13.0038 29.3905C12.6442 29.3023 12.2901 29.1907 11.9414 29.062C11.9005 29.0467 11.8588 29.0332 11.8179 29.017C11.4592 28.8793 11.1069 28.7227 10.7654 28.5427L12.9703 27.3511C13.6477 26.9848 14.0682 26.2819 14.0682 25.5178V23.9986L13.8565 23.7484C13.8493 23.7394 13.1264 22.8601 12.854 21.6838L12.7324 21.2635L12.4218 21.0646L12.4518 19.7047L12.7514 19.4365V17.1505L12.7432 17.0326C12.7423 17.0263 12.6779 16.363 13.1328 15.8491C13.5569 15.3703 14.3624 15.1165 15.462 15.1165C16.55 15.1165 17.3517 15.3649 17.7786 15.8356C18.2472 16.3504 18.1826 17.0173 18.1808 17.0335L18.1727 19.0378L18.2026 19.4923L18.5023 19.7605V21.0655C18.5023 21.1033 18.4659 21.1285 18.4433 21.1357L17.9911 21.2734L17.8458 21.7207C17.6432 22.3435 17.3563 22.9177 16.9903 23.4289C16.9059 23.5486 16.8259 23.6503 16.7561 23.7286L16.5282 23.9842V25.5475C16.5282 26.3431 16.974 27.0586 17.6914 27.4141L20.0378 28.5769C20.0242 28.5841 20.0106 28.5895 19.9979 28.5958C19.6782 28.7605 19.3486 28.9045 19.0135 29.0314C18.9563 29.053 18.8991 29.0728 18.8419 29.0935C18.5014 29.215 18.1545 29.3221 17.8022 29.4067C17.7931 29.4085 17.7849 29.4112 17.7759 29.413C16.2194 29.7784 14.5767 29.7721 13.0229 29.3941C13.0166 29.3941 13.0102 29.3923 13.0038 29.3905ZM15.4375 9.90006C20.945 9.90006 25.4264 14.3416 25.4264 19.8001C25.4264 22.8736 24.0062 25.6231 21.7823 27.4402C21.7378 27.4159 21.6951 27.3853 21.6497 27.3628L18.5068 25.8058C18.4087 25.7572 18.3452 25.6564 18.3452 25.5484V24.6439C18.3879 24.5881 18.4315 24.5296 18.4751 24.4684C18.8728 23.9131 19.1988 23.3002 19.4458 22.6432C19.9833 22.3057 20.3203 21.7189 20.3203 21.0655V19.7605C20.3203 19.3852 20.2032 19.0189 19.9907 18.7102V17.1982C20.0197 16.8733 20.0561 15.6781 19.1588 14.6638C18.3688 13.771 17.1256 13.3174 15.4638 13.3174C13.802 13.3174 12.5589 13.771 11.7689 14.6638C10.8726 15.6781 10.908 16.8724 10.9371 17.1982V18.7102C10.7246 19.0189 10.6074 19.3852 10.6074 19.7605V21.0655C10.6074 21.5704 10.8108 22.0429 11.1641 22.3921C11.4565 23.4172 11.9659 24.2245 12.2529 24.6259V25.5178C12.2529 25.6231 12.1947 25.7203 12.1013 25.7707L9.16631 27.3583C9.13271 27.3763 9.10183 27.4006 9.06914 27.4195C6.85888 25.6015 5.44862 22.861 5.44862 19.8001C5.44862 14.3416 9.93005 9.90006 15.4375 9.90006Z" fill="#A09ED5"/>
<path d="M9.98895 33.3003H2.72426V40.5003H9.98895H28.1505V33.3003H9.98895ZM4.54043 38.7003V35.1003H8.17275V38.7003H4.54043ZM26.3344 38.7003H9.98895V35.1003H26.3344V38.7003Z" fill="#A09ED5"/>
</svg>
