<svg width="69" height="54" viewBox="0 0 69 54" fill="none" xmlns="http://www.w3.org/2000/svg">
<path d="M31.9198 50.295L48.1934 47.4443L48.3442 47.4095L39.976 37.5361C37.1712 34.2426 34.3818 30.9364 31.6078 27.6175C31.6078 27.5688 40.2494 3.97001 40.2985 3.88657C40.3125 3.85876 46.1952 13.9268 54.5528 28.2919L68.8913 52.9407L69 53.1284L42.4019 53.1249L15.8039 53.1215L31.9198 50.2985V50.295ZM0 47.2913C0 47.2774 3.94396 40.4877 8.76435 32.2031L17.5287 17.1392L27.7409 8.63901C33.3571 3.96653 37.9672 0.135371 37.9882 0.128418C37.9507 0.271414 37.8953 0.409219 37.8234 0.538651L26.7313 24.127L15.8389 47.2913L7.91947 47.3017C3.56534 47.3087 0 47.3017 0 47.2878V47.2913Z" fill="#596481"/>
</svg>
