<svg width="48" height="54" viewBox="0 0 48 54" fill="none" xmlns="http://www.w3.org/2000/svg">
<path opacity="0.7" d="M47.1844 15.7133C47.1844 14.8266 46.9954 14.0271 46.603 13.3584C46.225 12.6897 45.6581 12.1374 44.9022 11.7013C38.6226 8.08177 32.3284 4.46227 26.0488 0.842759C24.3481 -0.131164 22.72 -0.102091 21.0338 0.886368C18.5336 2.35452 6.00344 9.53539 2.28218 11.7013C0.741344 12.588 0 13.9544 0 15.7278C0 23.0104 0 30.3076 0 37.5902C0 38.4624 0.18897 39.2328 0.552374 39.9014C0.930314 40.5846 1.51176 41.1661 2.28218 41.6167C6.01797 43.7826 18.5336 50.9489 21.0338 52.4316C22.72 53.4201 24.3626 53.4637 26.0488 52.4752C32.3284 48.8412 38.6226 45.2362 44.9022 41.6167C45.6872 41.1661 46.2541 40.5992 46.632 39.9014C46.9954 39.2328 47.1844 38.4624 47.1844 37.5902C47.1844 37.5757 47.1844 22.9959 47.1844 15.7133Z" fill="#253359"/>
<path d="M23.6503 26.5718L0.523302 39.8869C0.901242 40.5701 1.48269 41.1516 2.25311 41.6022C5.9889 43.7681 18.5045 50.9344 21.0048 52.4171C22.691 53.4055 24.3335 53.4492 26.0197 52.4607C32.2994 48.8267 38.5935 45.2217 44.8732 41.6022C45.6581 41.1516 46.225 40.5846 46.603 39.8869L23.6503 26.5718Z" fill="#253359"/>
<path d="M16.8038 30.5111C18.1557 32.8659 20.685 34.4504 23.5777 34.4504C26.4994 34.4504 29.0433 32.8514 30.3806 30.4675L23.6504 26.5718L16.8038 30.5111Z" fill="#253359"/>
<path opacity="0.6" d="M47.1844 15.7133C47.1844 14.8266 46.9954 14.0271 46.603 13.3584L23.6503 26.5718L46.632 39.8869C46.9954 39.2182 47.1844 38.4478 47.1844 37.5757C47.1844 37.5757 47.1844 22.9959 47.1844 15.7133Z" fill="#253359"/>
<path d="M30.3806 30.4676C29.0433 32.837 26.4994 34.4505 23.5777 34.4505C20.6704 34.4505 18.1411 32.8661 16.8038 30.5112C16.1497 29.3629 15.7717 28.0546 15.7717 26.6446C15.7717 22.3274 19.2604 18.8387 23.5777 18.8387C26.4558 18.8387 28.9706 20.4086 30.3225 22.7344L37.1399 18.8096C34.4216 14.129 29.3631 10.9746 23.5631 10.9746C14.8996 10.9746 7.89314 17.9956 7.89314 26.6446C7.89314 29.4792 8.64902 32.1538 9.97181 34.4505C12.6755 39.1457 17.7632 42.3146 23.5777 42.3146C29.4067 42.3146 34.4943 39.1312 37.1981 34.4069L30.3806 30.4676Z" fill="white"/>
<path d="M39.0006 22.9375H37.4452V30.4527H39.0006V22.9375Z" fill="white"/>
<path d="M42.4456 22.9375H40.8903V30.4527H42.4456V22.9375Z" fill="white"/>
<path d="M43.7103 24.2021H36.1951V25.7575H43.7103V24.2021Z" fill="white"/>
<path d="M43.7103 27.6328H36.1951V29.1882H43.7103V27.6328Z" fill="white"/>
</svg>
