<svg width="45" height="45" viewBox="0 0 45 45" fill="none" xmlns="http://www.w3.org/2000/svg">
<g clip-path="url(#clip0)">
<path d="M37.9688 8.78906C37.4836 8.78906 37.0899 9.18277 37.0899 9.66792C37.0899 10.1531 37.4836 10.5469 37.9688 10.5469C38.4539 10.5469 38.8476 10.1531 38.8476 9.66792C38.8476 9.18277 38.4539 8.78906 37.9688 8.78906Z" fill="#A09ED5"/>
<path d="M7.03125 8.78906C6.54609 8.78906 6.15234 9.18277 6.15234 9.66792C6.15234 10.1531 6.54609 10.5469 7.03125 10.5469C7.51641 10.5469 7.91016 10.1531 7.91016 9.66792C7.91016 9.18277 7.51641 8.78906 7.03125 8.78906Z" fill="#A09ED5"/>
<path d="M44.1211 19.3359H43.0699C42.7414 16.8044 41.9476 14.3919 40.7018 12.1549C40.4657 11.7308 39.9305 11.5784 39.5063 11.8146C39.0822 12.0507 38.9298 12.5859 39.166 13.01C40.2653 14.9843 40.9806 17.1082 41.2975 19.3359H40.6055C40.12 19.3359 39.7266 19.7295 39.7266 20.2149V23.7305C39.7266 24.2159 40.12 24.6094 40.6055 24.6094H44.1211C44.6065 24.6094 45 24.2159 45 23.7305V20.2149C45 19.7295 44.6065 19.3359 44.1211 19.3359ZM43.2422 22.8516H41.4844V21.0938H42.2823C42.2825 21.0938 42.2829 21.0938 42.2832 21.0938C42.2835 21.0938 42.2838 21.0938 42.2841 21.0938H43.2422V22.8516Z" fill="#A09ED5"/>
<path d="M32.1663 25.7186C32.1657 25.705 32.1654 25.6914 32.1643 25.6777C32.1627 25.6591 32.1601 25.6407 32.1574 25.6225C32.1557 25.6113 32.1545 25.6 32.1522 25.5887C32.1482 25.5672 32.1429 25.546 32.1374 25.5251C32.1353 25.5171 32.1336 25.5091 32.1312 25.5011C32.1234 25.4749 32.1143 25.4492 32.1041 25.424C32.1029 25.4212 32.1022 25.4183 32.101 25.4155C32.0889 25.3862 32.0752 25.3576 32.0601 25.33L23.2712 9.24645C23.1172 8.96448 22.8215 8.78906 22.5 8.78906C22.1785 8.78906 21.8828 8.96448 21.7288 9.24653L12.9399 25.3301C12.9248 25.3577 12.9111 25.3863 12.899 25.4156C12.8979 25.4183 12.8971 25.4211 12.8959 25.424C12.8857 25.4493 12.8766 25.475 12.8688 25.5013C12.8664 25.5092 12.8647 25.5172 12.8626 25.5252C12.857 25.5461 12.8518 25.5672 12.8478 25.5888C12.8456 25.6 12.8444 25.6113 12.8426 25.6225C12.8399 25.6408 12.8373 25.6592 12.8357 25.6778C12.8346 25.6915 12.8342 25.7051 12.8337 25.7187C12.8332 25.7298 12.8321 25.7406 12.8321 25.7519C12.8321 25.7577 12.8328 25.7632 12.8329 25.7691C12.8332 25.7828 12.8341 25.7966 12.835 25.8104C12.8361 25.8278 12.8376 25.8453 12.8398 25.8625C12.8414 25.8746 12.8433 25.8867 12.8453 25.8988C12.8484 25.9178 12.8523 25.9366 12.8567 25.9551C12.8591 25.9656 12.8619 25.976 12.8647 25.9865C12.8703 26.0065 12.8766 26.0261 12.8834 26.0455C12.8854 26.0511 12.8866 26.0568 12.8887 26.0623L16.0584 34.4619C15.8042 34.5879 15.569 34.7553 15.3623 34.9619C14.8642 35.4601 14.5899 36.1222 14.5899 36.8261C14.5899 37.9719 15.3247 38.9489 16.3477 39.3117V44.121C16.3477 44.6065 16.7411 45 17.2266 45H27.7734C28.2589 45 28.6524 44.6065 28.6524 44.121V39.3132C29.0187 39.1839 29.3548 38.9734 29.6378 38.6904C30.1358 38.1922 30.4102 37.5301 30.4102 36.8261C30.4102 35.7914 29.8108 34.8945 28.9412 34.463L32.1114 26.0623C32.1134 26.0568 32.1147 26.0511 32.1167 26.0455C32.1235 26.0261 32.1298 26.0065 32.1353 25.9865C32.1382 25.976 32.1409 25.9656 32.1434 25.9551C32.1478 25.9366 32.1516 25.9178 32.1548 25.8988C32.1568 25.8867 32.1589 25.8746 32.1603 25.8625C32.1625 25.8453 32.164 25.8278 32.1651 25.8104C32.1659 25.7966 32.1669 25.7828 32.1672 25.7691C32.1673 25.7633 32.168 25.7577 32.168 25.7519C32.168 25.7406 32.1668 25.7298 32.1663 25.7186ZM22.5 24.873C22.9846 24.873 23.3789 25.2673 23.3789 25.7519C23.3789 26.2366 22.9846 26.6308 22.5 26.6308C22.0154 26.6308 21.6211 26.2366 21.6211 25.7519C21.6211 25.2673 22.0154 24.873 22.5 24.873ZM26.8945 43.2422H18.1055V39.4628H26.8945V43.2422ZM28.3947 37.4474C28.2286 37.6135 28.0079 37.705 27.7734 37.705H17.2266C16.742 37.705 16.3477 37.3107 16.3477 36.8261C16.3477 36.5917 16.4392 36.3709 16.6053 36.2049C16.7715 36.0388 16.9921 35.9472 17.2266 35.9472H27.7675C27.7695 35.9472 27.7715 35.9475 27.7733 35.9475C27.7743 35.9475 27.7754 35.9474 27.7764 35.9474C28.2597 35.949 28.6524 36.3425 28.6524 36.8261C28.6524 37.0606 28.5608 37.2814 28.3947 37.4474ZM27.1657 34.1894H17.8344L14.982 26.6308H17.2266C17.712 26.6308 18.1055 26.2373 18.1055 25.7519C18.1055 25.2665 17.712 24.873 17.2266 24.873H15.1928L21.6211 13.1092V23.2664C20.5981 23.6292 19.8633 24.6061 19.8633 25.7519C19.8633 27.2058 21.0461 28.3886 22.5 28.3886C23.9539 28.3886 25.1367 27.2058 25.1367 25.7519C25.1367 24.6061 24.4019 23.6292 23.3789 23.2664V13.1092L29.8072 24.873H27.7734C27.288 24.873 26.8945 25.2665 26.8945 25.7519C26.8945 26.2373 27.288 26.6308 27.7734 26.6308H30.018L27.1657 34.1894Z" fill="#A09ED5"/>
<path d="M5.4936 11.8146C5.06945 11.5783 4.53419 11.7307 4.29811 12.1549C3.05244 14.3919 2.25852 16.8045 1.93008 19.336H0.878909C0.393486 19.336 0 19.7295 0 20.2149V23.7305C0 24.216 0.393486 24.6095 0.878909 24.6095H4.39453C4.87995 24.6095 5.27344 24.216 5.27344 23.7305V20.2149C5.27344 19.7295 4.87995 19.336 4.39453 19.336H3.7024C4.01942 17.1082 4.73458 14.9844 5.83392 13.0101C6.07008 12.586 5.91776 12.0508 5.4936 11.8146ZM3.51562 22.8517H1.75781V21.0939H2.71591C2.71626 21.0939 2.71652 21.0939 2.71688 21.0939C2.71714 21.0939 2.71749 21.0939 2.71775 21.0939H3.51562V22.8517Z" fill="#A09ED5"/>
<path d="M42.3633 0C41.2175 0 40.2405 0.734854 39.8777 1.75781H25.1367V0.878909C25.1367 0.393487 24.7432 0 24.2578 0H20.7422C20.2568 0 19.8633 0.393487 19.8633 0.878909V1.75781H5.12226C4.75945 0.734854 3.78246 0 2.63672 0C1.18283 0 0 1.18283 0 2.63672C0 4.0906 1.18283 5.27344 2.63672 5.27344C3.78246 5.27344 4.75945 4.53858 5.12226 3.51563H13.9582C12.0836 4.30005 10.3645 5.31835 8.94948 6.51129C8.57827 6.82418 8.53107 7.37868 8.84403 7.74976C9.01783 7.95603 9.26635 8.06221 9.5164 8.06221C9.71643 8.06221 9.91749 7.99436 10.0824 7.85531C12.6042 5.72942 16.2029 4.2111 19.8633 3.70186V4.39453C19.8633 4.87995 20.2568 5.27344 20.7422 5.27344H24.2578C24.7432 5.27344 25.1367 4.87995 25.1367 4.39453V3.70186C28.7971 4.2111 32.3958 5.72942 34.9176 7.85523C35.0825 7.99427 35.2836 8.06221 35.4836 8.06212C35.7338 8.06212 35.9823 7.95595 36.156 7.74967C36.469 7.37868 36.4217 6.82418 36.0505 6.51129C34.6355 5.31835 32.9164 4.30005 31.0418 3.51563H39.8777C40.2405 4.53858 41.2175 5.27344 42.3633 5.27344C43.8172 5.27344 45 4.0906 45 2.63672C45 1.18283 43.8172 0 42.3633 0ZM2.63672 3.51563C2.15209 3.51563 1.75781 3.12134 1.75781 2.63672C1.75781 2.15209 2.15209 1.75781 2.63672 1.75781C3.12134 1.75781 3.51562 2.15209 3.51562 2.63672C3.51562 3.12134 3.12134 3.51563 2.63672 3.51563ZM23.3789 2.63672V2.71582V3.51563H21.6211V2.71582V2.63672V1.75781H23.3789V2.63672ZM42.3633 3.51563C41.8786 3.51563 41.4844 3.12134 41.4844 2.63672C41.4844 2.15209 41.8786 1.75781 42.3633 1.75781C42.8479 1.75781 43.2422 2.15209 43.2422 2.63672C43.2422 3.12134 42.8479 3.51563 42.3633 3.51563Z" fill="#A09ED5"/>
</g>
<defs>
<clipPath id="clip0">
<rect width="45" height="45" fill="white"/>
</clipPath>
</defs>
</svg>
