<svg width="53" height="45" viewBox="0 0 53 45" fill="none" xmlns="http://www.w3.org/2000/svg">
<path d="M49.7342 0H3.26581C1.46495 0 0 1.46495 0 3.26571V34.7979C0 36.5987 1.46495 38.0636 3.26581 38.0636H18.9822L18.3465 43.1492H15.7126C15.2838 43.1492 14.9363 43.4969 14.9363 43.9256C14.9363 44.3544 15.2838 44.702 15.7126 44.702H37.2874C37.7162 44.702 38.0637 44.3544 38.0637 43.9256C38.0637 43.4969 37.7162 43.1492 37.2874 43.1492H34.6536L34.0178 38.0636H49.7342C51.5349 38.0636 53 36.5987 53 34.7979V3.26571C53 1.46495 51.535 0 49.7342 0ZM19.9113 43.1492L20.5471 38.0636H23.4045L23.6848 39.1847C24.0084 40.479 25.1661 41.3828 26.5001 41.3828C27.8341 41.3828 28.9918 40.479 29.3154 39.1847L29.5957 38.0636H32.4531L33.0887 43.1492H19.9113ZM25.0049 38.0636H27.995L27.8089 38.8081C27.6584 39.4098 27.1203 39.83 26.4999 39.83C25.8795 39.83 25.3415 39.4097 25.1909 38.8081L25.0049 38.0636ZM51.4473 34.7979C51.4473 35.7425 50.6788 36.5109 49.7342 36.5109H3.26581C2.32123 36.5109 1.55273 35.7425 1.55273 34.7979V3.26571C1.55273 2.32113 2.32123 1.55273 3.26581 1.55273H49.7342C50.6788 1.55273 51.4473 2.32113 51.4473 3.26571V34.7979Z" fill="#A09ED5"/>
<path d="M43.9256 3.31934H4.09546C3.66659 3.31934 3.31909 3.66685 3.31909 4.09571V33.9682C3.31909 34.3971 3.66659 34.7446 4.09546 34.7446H5.75513C6.18399 34.7446 6.53149 34.3971 6.53149 33.9682C6.5316 33.5395 6.18399 33.1919 5.75523 33.1919H4.87193V4.87208H43.9256C44.3545 4.87208 44.702 4.52447 44.702 4.09571C44.702 3.66685 44.3545 3.31934 43.9256 3.31934Z" fill="#A09ED5"/>
<path d="M48.9045 3.31934H47.2448C46.8159 3.31934 46.4684 3.66685 46.4684 4.09571C46.4684 4.52447 46.8159 4.87208 47.2448 4.87208H48.1281V33.1919H9.07434C8.64548 33.1919 8.29797 33.5395 8.29797 33.9682C8.29797 34.3971 8.64548 34.7446 9.07434 34.7446H48.9044C49.3332 34.7446 49.6807 34.3971 49.6807 33.9682V4.09571C49.6808 3.66685 49.3332 3.31934 48.9045 3.31934Z" fill="#A09ED5"/>
<path d="M37.069 11.915C36.9294 11.7367 36.719 11.6282 36.4929 11.6179L18.2375 10.7881C18.2232 10.7874 18.2092 10.7871 18.1948 10.7873C18.0868 10.4326 17.8584 10.1249 17.5493 9.9187L15.3137 8.42828C14.957 8.19051 14.4749 8.28688 14.2371 8.6437C13.9993 9.00052 14.0957 9.48248 14.4524 9.72026L16.688 11.2105C16.6985 11.2175 16.7063 11.2282 16.7098 11.2404L19.5574 21.207C19.6462 21.5178 19.7924 21.7971 19.9801 22.0382L18.9382 24.122C18.6874 24.6235 18.7137 25.2077 19.0085 25.6847C19.1154 25.8577 19.251 26.005 19.4068 26.123C19.2029 26.479 19.0856 26.8907 19.0856 27.3297C19.0856 28.6729 20.1784 29.7656 21.5215 29.7656C22.8646 29.7656 23.9575 28.6728 23.9575 27.3297C23.9575 27.0182 23.898 26.7205 23.791 26.4465H30.8691C30.7621 26.7205 30.7026 27.0182 30.7026 27.3297C30.7026 28.6729 31.7955 29.7656 33.1386 29.7656C34.4817 29.7656 35.5745 28.6728 35.5745 27.3297C35.5745 26.94 35.4821 26.5718 35.3187 26.2449C35.4754 26.1029 35.5745 25.8983 35.5745 25.6701C35.5745 25.2413 35.227 24.8937 34.7981 24.8937H20.3745C20.3634 24.8937 20.3447 24.8937 20.329 24.8684C20.3134 24.8431 20.3218 24.8264 20.3267 24.8164L21.2865 22.8969C21.4819 22.9471 21.6854 22.9742 21.8937 22.9742C21.9896 22.9742 22.0865 22.9685 22.184 22.9572L33.0931 21.6738C34.5021 21.5079 35.6357 20.462 35.9139 19.0708L37.2188 12.5458C37.2633 12.3237 37.2085 12.0934 37.069 11.915ZM33.1384 26.4467C33.6254 26.4467 34.0216 26.8429 34.0216 27.3299C34.0216 27.8169 33.6254 28.2131 33.1384 28.2131C32.6513 28.2131 32.2552 27.8169 32.2552 27.3299C32.2552 26.8428 32.6513 26.4467 33.1384 26.4467ZM21.5213 26.4467C22.0084 26.4467 22.4045 26.8428 22.4045 27.3299C22.4045 27.8169 22.0084 28.2131 21.5213 28.2131C21.0343 28.2131 20.6381 27.8169 20.6381 27.3299C20.6381 26.8428 21.0343 26.4467 21.5213 26.4467ZM19.6175 15.7661L18.6445 12.361L21.7484 12.5021L22.2866 15.7661H19.6175ZM22.0027 21.4151C21.5698 21.466 21.1697 21.199 21.0502 20.7805L20.0611 17.3189H22.5426L23.1949 21.2748L22.0027 21.4151ZM26.5535 20.8797L24.7387 21.0933L24.1165 17.319H26.5535V20.8797ZM26.5535 15.7661H23.8604L23.3341 12.5742L26.5535 12.7206V15.7661ZM30.4853 20.4171L28.1063 20.697V17.3189H30.7657L30.4853 20.4171ZM30.9063 15.7661H28.1063V12.7911L31.163 12.93L30.9063 15.7661ZM34.3912 18.7664C34.2453 19.496 33.6507 20.0447 32.9117 20.1317L32.0611 20.2318L32.3247 17.319H34.6806L34.3912 18.7664ZM34.9913 15.7661H32.4654L32.7157 13.0006L35.5189 13.128L34.9913 15.7661Z" fill="#A09ED5"/>
</svg>
