<svg width="50" height="40" viewBox="0 0 50 40" fill="none" xmlns="http://www.w3.org/2000/svg">
<path d="M50 0H11.6667V5.83333H5.83333V11.6667H0V40H38.3333V34.1667H44.1667V28.3333H50V0ZM36.6667 38.3333H1.66667V13.3333H5.83333V34.1667H36.6667V38.3333ZM42.5 32.5H38.3333H33.3333H28.3333H23.3333H18.3333H13.3333H8.33333H7.5V31.6667V26.6667V21.6667V16.6667V11.6667V7.5H11.6667V9.16667V14.1667V19.1667V24.1667V28.3333H15.8333H20.8333H25.8333H30.8333H35.8333H40.8333H42.5V32.5ZM48.3333 26.6667H44.1667H13.3333V5.83333V1.66667H48.3333V26.6667Z" fill="#A09ED5"/>
<path d="M28.3333 32.5002C28.7936 32.5002 29.1667 32.1271 29.1667 31.6668C29.1667 31.2066 28.7936 30.8335 28.3333 30.8335C27.8731 30.8335 27.5 31.2066 27.5 31.6668C27.5 32.1271 27.8731 32.5002 28.3333 32.5002Z" fill="#A09ED5"/>
<path d="M30.8333 30.0001C31.2936 30.0001 31.6667 29.627 31.6667 29.1668C31.6667 28.7066 31.2936 28.3335 30.8333 28.3335C30.3731 28.3335 30 28.7066 30 29.1668C30 29.627 30.3731 30.0001 30.8333 30.0001Z" fill="#A09ED5"/>
<path d="M33.3333 32.5002C33.7936 32.5002 34.1667 32.1271 34.1667 31.6668C34.1667 31.2066 33.7936 30.8335 33.3333 30.8335C32.8731 30.8335 32.5 31.2066 32.5 31.6668C32.5 32.1271 32.8731 32.5002 33.3333 32.5002Z" fill="#A09ED5"/>
<path d="M38.3333 32.5002C38.7936 32.5002 39.1667 32.1271 39.1667 31.6668C39.1667 31.2066 38.7936 30.8335 38.3333 30.8335C37.8731 30.8335 37.5 31.2066 37.5 31.6668C37.5 32.1271 37.8731 32.5002 38.3333 32.5002Z" fill="#A09ED5"/>
<path d="M35.8333 30.0001C36.2936 30.0001 36.6667 29.627 36.6667 29.1668C36.6667 28.7066 36.2936 28.3335 35.8333 28.3335C35.3731 28.3335 35 28.7066 35 29.1668C35 29.627 35.3731 30.0001 35.8333 30.0001Z" fill="#A09ED5"/>
<path d="M40.8333 30.0001C41.2936 30.0001 41.6667 29.627 41.6667 29.1668C41.6667 28.7066 41.2936 28.3335 40.8333 28.3335C40.3731 28.3335 40 28.7066 40 29.1668C40 29.627 40.3731 30.0001 40.8333 30.0001Z" fill="#A09ED5"/>
<path d="M23.3333 32.5002C23.7936 32.5002 24.1667 32.1271 24.1667 31.6668C24.1667 31.2066 23.7936 30.8335 23.3333 30.8335C22.8731 30.8335 22.5 31.2066 22.5 31.6668C22.5 32.1271 22.8731 32.5002 23.3333 32.5002Z" fill="#A09ED5"/>
<path d="M25.8333 30.0001C26.2936 30.0001 26.6667 29.627 26.6667 29.1668C26.6667 28.7066 26.2936 28.3335 25.8333 28.3335C25.3731 28.3335 25 28.7066 25 29.1668C25 29.627 25.3731 30.0001 25.8333 30.0001Z" fill="#A09ED5"/>
<path d="M8.33333 32.5002C8.79357 32.5002 9.16667 32.1271 9.16667 31.6668C9.16667 31.2066 8.79357 30.8335 8.33333 30.8335C7.8731 30.8335 7.5 31.2066 7.5 31.6668C7.5 32.1271 7.8731 32.5002 8.33333 32.5002Z" fill="#A09ED5"/>
<path d="M8.33333 27.5002C8.79357 27.5002 9.16667 27.1271 9.16667 26.6668C9.16667 26.2066 8.79357 25.8335 8.33333 25.8335C7.8731 25.8335 7.5 26.2066 7.5 26.6668C7.5 27.1271 7.8731 27.5002 8.33333 27.5002Z" fill="#A09ED5"/>
<path d="M10.8333 30.0001C11.2936 30.0001 11.6667 29.627 11.6667 29.1668C11.6667 28.7066 11.2936 28.3335 10.8333 28.3335C10.3731 28.3335 10 28.7066 10 29.1668C10 29.627 10.3731 30.0001 10.8333 30.0001Z" fill="#A09ED5"/>
<path d="M10.8333 25.0001C11.2936 25.0001 11.6667 24.627 11.6667 24.1668C11.6667 23.7066 11.2936 23.3335 10.8333 23.3335C10.3731 23.3335 10 23.7066 10 24.1668C10 24.627 10.3731 25.0001 10.8333 25.0001Z" fill="#A09ED5"/>
<path d="M13.3333 32.5002C13.7936 32.5002 14.1667 32.1271 14.1667 31.6668C14.1667 31.2066 13.7936 30.8335 13.3333 30.8335C12.8731 30.8335 12.5 31.2066 12.5 31.6668C12.5 32.1271 12.8731 32.5002 13.3333 32.5002Z" fill="#A09ED5"/>
<path d="M18.3333 32.5002C18.7936 32.5002 19.1667 32.1271 19.1667 31.6668C19.1667 31.2066 18.7936 30.8335 18.3333 30.8335C17.8731 30.8335 17.5 31.2066 17.5 31.6668C17.5 32.1271 17.8731 32.5002 18.3333 32.5002Z" fill="#A09ED5"/>
<path d="M15.8333 30.0001C16.2936 30.0001 16.6667 29.627 16.6667 29.1668C16.6667 28.7066 16.2936 28.3335 15.8333 28.3335C15.3731 28.3335 15 28.7066 15 29.1668C15 29.627 15.3731 30.0001 15.8333 30.0001Z" fill="#A09ED5"/>
<path d="M20.8333 30.0001C21.2936 30.0001 21.6667 29.627 21.6667 29.1668C21.6667 28.7066 21.2936 28.3335 20.8333 28.3335C20.3731 28.3335 20 28.7066 20 29.1668C20 29.627 20.3731 30.0001 20.8333 30.0001Z" fill="#A09ED5"/>
<path d="M8.33333 22.5002C8.79357 22.5002 9.16667 22.1271 9.16667 21.6668C9.16667 21.2066 8.79357 20.8335 8.33333 20.8335C7.8731 20.8335 7.5 21.2066 7.5 21.6668C7.5 22.1271 7.8731 22.5002 8.33333 22.5002Z" fill="#A09ED5"/>
<path d="M8.33333 17.5002C8.79357 17.5002 9.16667 17.1271 9.16667 16.6668C9.16667 16.2066 8.79357 15.8335 8.33333 15.8335C7.8731 15.8335 7.5 16.2066 7.5 16.6668C7.5 17.1271 7.8731 17.5002 8.33333 17.5002Z" fill="#A09ED5"/>
<path d="M10.8333 20.0002C11.2936 20.0002 11.6667 19.6271 11.6667 19.1668C11.6667 18.7066 11.2936 18.3335 10.8333 18.3335C10.3731 18.3335 10 18.7066 10 19.1668C10 19.6271 10.3731 20.0002 10.8333 20.0002Z" fill="#A09ED5"/>
<path d="M10.8333 15.0002C11.2936 15.0002 11.6667 14.6271 11.6667 14.1668C11.6667 13.7066 11.2936 13.3335 10.8333 13.3335C10.3731 13.3335 10 13.7066 10 14.1668C10 14.6271 10.3731 15.0002 10.8333 15.0002Z" fill="#A09ED5"/>
<path d="M8.33333 12.5001C8.79357 12.5001 9.16667 12.127 9.16667 11.6668C9.16667 11.2066 8.79357 10.8335 8.33333 10.8335C7.8731 10.8335 7.5 11.2066 7.5 11.6668C7.5 12.127 7.8731 12.5001 8.33333 12.5001Z" fill="#A09ED5"/>
<path d="M10.8333 10.0002C11.2936 10.0002 11.6667 9.62707 11.6667 9.16684C11.6667 8.7066 11.2936 8.3335 10.8333 8.3335C10.3731 8.3335 10 8.7066 10 9.16684C10 9.62707 10.3731 10.0002 10.8333 10.0002Z" fill="#A09ED5"/>
</svg>
