<svg width="53" height="47" viewBox="0 0 53 47" fill="none" xmlns="http://www.w3.org/2000/svg">
<path d="M46.6905 46.4748H5.97944C2.6826 46.4748 0 43.7922 0 40.4954V5.97944C0 2.6826 2.6826 0 5.97944 0H46.6905C49.9873 0 52.6699 2.6826 52.6699 5.97944V40.4954C52.6699 43.7922 49.9873 46.4748 46.6905 46.4748ZM5.97944 1.78111C3.66459 1.78111 1.78111 3.66459 1.78111 5.97944V40.4954C1.78111 42.8102 3.66459 44.6937 5.97944 44.6937H46.6905C49.0053 44.6937 50.8888 42.8102 50.8888 40.4954V5.97944C50.8888 3.66459 49.0053 1.78111 46.6905 1.78111H5.97944Z" fill="#A09ED5"/>
<path d="M44.632 32.8783H30.6381C30.1461 32.8783 29.7476 32.4797 29.7476 31.9877C29.7476 31.4962 30.1461 31.0972 30.6381 31.0972H44.632C45.1235 31.0972 45.5226 31.4962 45.5226 31.9877C45.5226 32.4797 45.124 32.8783 44.632 32.8783Z" fill="#A09ED5"/>
<path d="M44.632 39.3173H30.6381C30.1461 39.3173 29.7476 38.9187 29.7476 38.4267C29.7476 37.9352 30.1461 37.5361 30.6381 37.5361H44.632C45.1235 37.5361 45.5226 37.9352 45.5226 38.4267C45.5226 38.9187 45.124 39.3173 44.632 39.3173Z" fill="#A09ED5"/>
<path d="M44.632 20.0013H30.6381C30.1461 20.0013 29.7476 19.6027 29.7476 19.1107C29.7476 18.6193 30.1461 18.2202 30.6381 18.2202H44.632C45.1235 18.2202 45.5226 18.6193 45.5226 19.1107C45.5226 19.6027 45.124 20.0013 44.632 20.0013Z" fill="#A09ED5"/>
<path d="M44.632 26.4398H30.6381C30.1461 26.4398 29.7476 26.0412 29.7476 25.5492C29.7476 25.0578 30.1461 24.6587 30.6381 24.6587H44.632C45.1235 24.6587 45.5226 25.0578 45.5226 25.5492C45.5226 26.0412 45.124 26.4398 44.632 26.4398Z" fill="#A09ED5"/>
<path d="M51.7794 11.9247H0.890554C0.398563 11.9247 0 11.5261 0 11.0341C0 10.5422 0.398563 10.1436 0.890554 10.1436H51.7794C52.2714 10.1436 52.6699 10.5422 52.6699 11.0341C52.6699 11.5261 52.2714 11.9247 51.7794 11.9247Z" fill="#A09ED5"/>
<path d="M12.8384 8.75062C11.3103 8.75062 10.0669 7.50772 10.0669 5.97956C10.0669 4.4514 11.3103 3.2085 12.8384 3.2085C14.3666 3.2085 15.6095 4.4514 15.6095 5.97956C15.6095 7.50772 14.3666 8.75062 12.8384 8.75062ZM12.8384 4.98961C12.2923 4.98961 11.848 5.4339 11.848 5.97956C11.848 6.52522 12.2923 6.96951 12.8384 6.96951C13.3841 6.96951 13.8284 6.52522 13.8284 5.97956C13.8284 5.4339 13.3841 4.98961 12.8384 4.98961Z" fill="#A09ED5"/>
<path d="M6.42169 8.75062C4.89403 8.75062 3.65063 7.50772 3.65063 5.97956C3.65063 4.4514 4.89403 3.2085 6.42169 3.2085C7.94985 3.2085 9.19324 4.4514 9.19324 5.97956C9.19324 7.50772 7.94985 8.75062 6.42169 8.75062ZM6.42169 4.98961C5.87603 4.98961 5.43174 5.4339 5.43174 5.97956C5.43174 6.52522 5.87603 6.96951 6.42169 6.96951C6.96785 6.96951 7.41213 6.52522 7.41213 5.97956C7.41213 5.4339 6.96785 4.98961 6.42169 4.98961Z" fill="#A09ED5"/>
<path d="M19.2547 8.75062C17.7265 8.75062 16.4836 7.50772 16.4836 5.97956C16.4836 4.4514 17.7265 3.2085 19.2547 3.2085C20.7829 3.2085 22.0263 4.4514 22.0263 5.97956C22.0263 7.50772 20.7829 8.75062 19.2547 8.75062ZM19.2547 4.98961C18.7085 4.98961 18.2648 5.4339 18.2648 5.97956C18.2648 6.52522 18.709 6.96951 19.2547 6.96951C19.8009 6.96951 20.2451 6.52522 20.2451 5.97956C20.2451 5.4339 19.8009 4.98961 19.2547 4.98961Z" fill="#A09ED5"/>
<path d="M23.9176 39.3172H7.76043C7.26844 39.3172 6.86987 38.9186 6.86987 38.4266V19.1107C6.86987 18.6193 7.26844 18.2202 7.76043 18.2202H23.9176C24.4096 18.2202 24.8082 18.6193 24.8082 19.1107V38.4266C24.8082 38.9186 24.4096 39.3172 23.9176 39.3172ZM8.65098 37.5361H23.0271V20.0013H8.65098V37.5361Z" fill="#A09ED5"/>
</svg>
