<svg width="683" height="80" viewBox="0 0 683 80" fill="none" xmlns="http://www.w3.org/2000/svg">
<g clip-path="url(#clip0)">
<path d="M26.8952 22.0486C20.867 22.0486 14.0504 24.5395 9.73793 28.8754V0.922537C9.73793 0.415142 9.32059 0 8.8105 0H0.927422C0.41734 0 0 0.415142 0 0.922537V48.7561C0 56.0903 2.64315 62.8709 7.46574 67.8526C12.2883 72.8804 19.7541 75.648 26.8025 75.648C41.2703 75.648 53.5122 63.8396 53.5122 48.7561C53.5122 41.4219 50.8691 34.6413 46.0465 29.7057C41.2239 24.7701 33.8509 22.0486 26.8952 22.0486ZM26.8025 66.3304C18.0847 66.3304 10.0625 58.4427 10.0625 48.7561C10.0162 39.1617 18.0847 31.3663 26.8025 31.3663C35.4739 31.3663 43.4497 39.1617 43.4497 48.7561C43.4497 58.5811 35.613 66.3304 26.8025 66.3304Z" fill="#1ABFF3"/>
<path d="M112.589 23.2939H104.428C103.917 23.2939 103.5 23.7091 103.5 24.2165V54.1067C103.5 61.1641 98.863 65.9152 91.9073 65.9152C84.9053 65.9152 80.2218 61.1641 80.2218 54.1067V24.2165C80.2218 23.7091 79.8045 23.2939 79.2944 23.2939H71.2258C70.7157 23.2939 70.2984 23.7091 70.2984 24.2165V54.1067C70.2984 60.3799 72.4778 65.7768 76.5585 69.7437C80.5 73.5261 85.9255 75.6479 91.9073 75.6479C97.8892 75.6479 103.361 73.5722 107.256 69.7437C111.337 65.7768 113.516 60.3799 113.516 54.1067V24.2165C113.516 23.7091 113.099 23.2939 112.589 23.2939Z" fill="#1ABFF3"/>
<path d="M166.843 57.2895H158.357C158.032 57.2895 157.708 57.474 157.522 57.7508C154.416 63.3782 149.732 66.0997 143.24 66.0997C138.047 66.0997 133.317 63.7011 130.303 59.6881L167.307 44.1433C167.724 43.9588 167.956 43.5437 167.863 43.0824C166.426 36.7631 163.18 31.4123 158.403 27.5838C153.952 24.032 148.387 22.0486 142.776 22.0486C128.494 22.0486 116.901 34.0877 116.901 48.9405C116.901 63.8856 128.494 75.6019 143.24 75.6019C154.972 75.6019 163.69 69.5592 167.678 58.5349C167.77 58.2582 167.724 57.9353 167.585 57.7046C167.446 57.474 167.168 57.2895 166.843 57.2895ZM142.776 31.5968C147.784 31.5968 152.607 34.4106 155.575 38.931L127.057 50.8779C126.964 50.2321 126.964 49.5402 126.964 48.8483C126.964 38.193 135.172 31.5968 142.776 31.5968Z" fill="#1ABFF3"/>
<path d="M65.8468 0H57.7782C57.2681 0 56.8508 0.415142 56.8508 0.922537V74.6794C56.8508 75.1868 57.2681 75.6019 57.7782 75.6019H65.8468C66.3568 75.6019 66.7742 75.1868 66.7742 74.6794V0.922537C66.7742 0.415142 66.3568 0 65.8468 0Z" fill="#1ABFF3"/>
<path d="M219.799 57.6133H210.895C210.617 57.6133 210.385 57.7517 210.292 57.9823C207.603 63.3792 202.502 66.4697 196.335 66.4697C187.385 66.4697 180.105 58.582 180.105 48.8953C180.105 39.0703 187.385 31.0904 196.335 31.0904C202.409 31.0904 207.464 34.1809 210.292 39.5777C210.432 39.8084 210.663 39.9467 210.895 39.9467H219.799C220.03 39.9467 220.216 39.8545 220.355 39.67C220.494 39.4855 220.54 39.2548 220.448 39.0703C216.877 28.4611 207.649 21.9111 196.335 21.9111C182.052 21.9111 170.46 34.0425 170.46 48.9415C170.46 63.7482 182.052 75.7873 196.335 75.7873C207.696 75.7873 216.97 69.1912 220.448 58.582C220.494 58.3975 220.494 58.1668 220.355 57.9823C220.216 57.7056 219.984 57.6133 219.799 57.6133Z" fill="#1ABFF3"/>
<path d="M246.648 21.8179C239.599 21.8179 233.015 24.6316 228.146 29.7978C223.323 34.8718 220.633 41.6985 220.633 48.9405C220.633 56.1363 223.277 62.8247 228.146 67.8986C233.015 72.9726 239.599 75.7863 246.648 75.7863C261.208 75.7863 272.615 64.024 272.615 48.9405C272.615 33.7647 261.208 21.8179 246.648 21.8179ZM246.648 31.0894C255.644 31.0894 262.97 39.1154 262.97 48.9866C262.97 58.6271 255.644 66.4687 246.648 66.4687C237.698 66.4687 230.418 58.6271 230.418 48.9866C230.418 39.0693 237.698 31.0894 246.648 31.0894Z" fill="#1ABFF3"/>
<path d="M300.577 31.1817C300.763 31.1817 300.948 31.1355 301.087 30.9971C301.226 30.8588 301.319 30.6743 301.319 30.4898V22.7866C301.319 22.4637 301.041 22.1408 300.716 22.0947C299.557 21.9563 298.444 21.9102 297.331 21.9102C291.21 21.9102 285.97 23.8936 282.122 27.6299C278.041 31.5968 275.908 37.2704 275.908 44.051V73.8029C275.908 74.1719 276.232 74.4948 276.603 74.4948H284.811C285.182 74.4948 285.507 74.1719 285.507 73.8029V43.9127C285.507 35.656 290.097 31.0894 298.444 31.0894C299.093 31.0433 299.835 31.0894 300.577 31.1817Z" fill="#1ABFF3"/>
<path d="M351.91 57.6123H343.331C343.1 57.6123 342.868 57.7507 342.729 57.9813C339.529 63.7472 334.706 66.561 327.983 66.561C322.511 66.561 317.503 63.9778 314.442 59.688L352.281 43.7743C352.606 43.6359 352.745 43.313 352.698 42.9901C349.916 30.5359 339.529 21.864 327.519 21.864C313.19 21.864 301.505 33.9954 301.505 48.8944C301.505 63.9317 313.144 75.7402 327.983 75.7402C339.807 75.7402 348.525 69.6515 352.559 58.581C352.652 58.3504 352.606 58.1197 352.467 57.9813C352.374 57.7046 352.142 57.6123 351.91 57.6123ZM327.473 30.951C332.712 30.951 337.767 33.9493 340.827 38.7926L311.335 51.2007C311.243 50.4165 311.196 49.6324 311.196 48.756C311.15 37.7778 319.636 30.951 327.473 30.951Z" fill="#1ABFF3"/>
</g>
<path d="M452.744 43V26.1933H458.33C459.656 26.1933 460.816 26.4143 461.81 26.8561C462.82 27.298 463.656 27.8977 464.319 28.6551C464.982 29.4126 465.479 30.3043 465.811 31.33C466.142 32.34 466.308 33.421 466.308 34.573C466.308 35.8512 466.118 37.0111 465.74 38.0527C465.377 39.0784 464.848 39.9622 464.154 40.7039C463.459 41.4298 462.615 41.9979 461.621 42.4082C460.642 42.8027 459.545 43 458.33 43H452.744ZM465.1 34.573C465.1 33.5157 464.95 32.5451 464.651 31.6614C464.351 30.7619 463.909 29.9886 463.325 29.3416C462.757 28.6946 462.055 28.1896 461.218 27.8267C460.382 27.4637 459.419 27.2822 458.33 27.2822H453.951V41.9111H458.33C459.435 41.9111 460.406 41.7296 461.242 41.3667C462.094 40.9879 462.804 40.4672 463.372 39.8044C463.94 39.1416 464.367 38.3683 464.651 37.4846C464.95 36.5851 465.1 35.6145 465.1 34.573ZM470.803 43V26.1933H472.01V43H470.803ZM489.984 40.3725C488.358 42.2031 486.472 43.1184 484.326 43.1184C483.19 43.1184 482.133 42.8738 481.154 42.3845C480.192 41.8953 479.363 41.2483 478.669 40.4435C477.974 39.6387 477.43 38.7234 477.035 37.6976C476.641 36.6719 476.444 35.6303 476.444 34.573C476.444 33.4683 476.633 32.4031 477.012 31.3774C477.406 30.3516 477.943 29.4442 478.621 28.6551C479.316 27.8661 480.136 27.2428 481.083 26.7851C482.03 26.3117 483.064 26.075 484.184 26.075C485.021 26.075 485.77 26.1697 486.433 26.359C487.111 26.5326 487.711 26.7851 488.232 27.1165C488.768 27.4321 489.226 27.8188 489.605 28.2764C489.999 28.7183 490.331 29.2075 490.599 29.744L489.605 30.3358C489.037 29.2312 488.279 28.4342 487.332 27.945C486.401 27.44 485.344 27.1875 484.16 27.1875C483.166 27.1875 482.267 27.4006 481.462 27.8267C480.657 28.2527 479.971 28.813 479.403 29.5073C478.834 30.2017 478.4 30.9907 478.101 31.8745C477.801 32.7582 477.651 33.6656 477.651 34.5967C477.651 35.5909 477.824 36.5377 478.172 37.4372C478.519 38.321 478.992 39.1021 479.592 39.7807C480.207 40.4593 480.925 41.0037 481.746 41.414C482.567 41.8085 483.45 42.0058 484.397 42.0058C485.423 42.0058 486.393 41.7691 487.309 41.2957C488.24 40.8222 489.131 40.0726 489.984 39.0469V35.8039H486.173V34.8334H491.025V43H489.984V40.3725ZM495.755 43V26.1933H496.962V43H495.755ZM514.297 27.2822H508.142V43H506.935V27.2822H500.78V26.1933H514.297V27.2822ZM521.709 26.1933H522.75L529.852 43H528.573L526.23 37.4609H518.205L515.862 43H514.56L521.709 26.1933ZM525.899 36.4667L522.23 27.661L518.489 36.4667H525.899ZM533.587 43V26.1933H534.794V41.9111H544.831V43H533.587ZM464.485 57.2822H458.33V73H457.123V57.2822H450.969V56.1933H464.485V57.2822ZM468.283 73V56.1933H475.266C475.976 56.1933 476.631 56.3432 477.231 56.6431C477.83 56.9429 478.343 57.3453 478.769 57.8503C479.211 58.3395 479.55 58.8998 479.787 59.531C480.04 60.1464 480.166 60.7698 480.166 61.401C480.166 62.0165 480.071 62.6162 479.882 63.2001C479.692 63.7682 479.424 64.281 479.077 64.7387C478.73 65.1963 478.312 65.5751 477.822 65.8749C477.333 66.1748 476.797 66.372 476.213 66.4667L480.403 73H479.006L474.935 66.6561H469.49V73H468.283ZM469.49 65.5435H475.384C475.921 65.5435 476.41 65.4252 476.852 65.1884C477.294 64.9517 477.673 64.644 477.988 64.2653C478.304 63.8707 478.54 63.4289 478.698 62.9397C478.872 62.4347 478.959 61.9218 478.959 61.401C478.959 60.8645 478.856 60.3516 478.651 59.8624C478.462 59.3574 478.193 58.9155 477.846 58.5368C477.515 58.1581 477.12 57.8582 476.663 57.6373C476.221 57.4006 475.739 57.2822 475.219 57.2822H469.49V65.5435ZM489.863 56.1933H490.905L498.006 73H496.728L494.385 67.4609H486.36L484.017 73H482.715L489.863 56.1933ZM494.053 66.4667L490.384 57.661L486.644 66.4667H494.053ZM502.949 58.4658V73H501.742V56.1933H502.665L514.453 70.9879V56.1933H515.661V73H514.548L502.949 58.4658ZM531.01 58.9865C529.921 57.7714 528.382 57.1639 526.394 57.1639C524.753 57.1639 523.553 57.4795 522.796 58.1107C522.054 58.7262 521.683 59.5626 521.683 60.6199C521.683 61.1564 521.778 61.6062 521.968 61.9691C522.157 62.3163 522.449 62.6162 522.843 62.8687C523.254 63.1211 523.767 63.3342 524.382 63.5078C524.997 63.6814 525.739 63.8629 526.607 64.0522C527.507 64.2416 528.319 64.4546 529.045 64.6913C529.787 64.9123 530.41 65.1963 530.915 65.5435C531.436 65.8907 531.831 66.3168 532.099 66.8218C532.383 67.3268 532.525 67.9501 532.525 68.6918C532.525 69.4335 532.375 70.0805 532.075 70.6329C531.791 71.1852 531.381 71.6507 530.844 72.0295C530.324 72.3924 529.692 72.6686 528.951 72.858C528.225 73.0473 527.412 73.142 526.512 73.142C523.893 73.142 521.676 72.3056 519.861 70.6329L520.5 69.6623C521.21 70.404 522.078 70.9958 523.104 71.4377C524.129 71.8638 525.281 72.0768 526.56 72.0768C528.027 72.0768 529.171 71.8085 529.992 71.272C530.828 70.7354 531.247 69.9227 531.247 68.8338C531.247 68.2815 531.136 67.816 530.915 67.4372C530.694 67.0427 530.363 66.7034 529.921 66.4194C529.495 66.1353 528.951 65.8907 528.288 65.6855C527.625 65.4804 526.852 65.2831 525.968 65.0938C525.068 64.9044 524.272 64.7071 523.577 64.502C522.899 64.281 522.323 64.0128 521.849 63.6972C521.392 63.3658 521.044 62.9712 520.808 62.5136C520.571 62.0559 520.453 61.4799 520.453 60.7856C520.453 60.0281 520.595 59.3574 520.879 58.7735C521.178 58.1896 521.589 57.7004 522.11 57.3059C522.63 56.8956 523.254 56.5879 523.98 56.3827C524.705 56.1775 525.51 56.075 526.394 56.075C527.483 56.075 528.453 56.2407 529.306 56.5721C530.158 56.8877 530.931 57.3769 531.625 58.0397L531.01 58.9865ZM536.75 73V56.1933H547.686V57.2822H537.957V63.9575H546.218V64.9991H537.957V73H536.75ZM558.317 73.1184C557.149 73.1184 556.084 72.8738 555.121 72.3845C554.159 71.8953 553.33 71.2562 552.636 70.4672C551.942 69.6781 551.405 68.7707 551.026 67.745C550.648 66.7192 550.458 65.6698 550.458 64.5967C550.458 63.4762 550.655 62.4031 551.05 61.3774C551.46 60.3516 552.013 59.4442 552.707 58.6551C553.417 57.8661 554.254 57.2428 555.216 56.7851C556.179 56.3117 557.22 56.075 558.341 56.075C559.509 56.075 560.574 56.3275 561.536 56.8325C562.515 57.3217 563.343 57.9687 564.022 58.7735C564.716 59.5783 565.253 60.4936 565.632 61.5194C566.01 62.5294 566.2 63.5551 566.2 64.5967C566.2 65.7329 565.995 66.8139 565.584 67.8396C565.19 68.8654 564.637 69.7728 563.927 70.5618C563.233 71.3351 562.404 71.9585 561.442 72.4319C560.479 72.8895 559.438 73.1184 558.317 73.1184ZM551.665 64.5967C551.665 65.5593 551.823 66.4904 552.139 67.3899C552.47 68.2736 552.928 69.0627 553.512 69.757C554.112 70.4356 554.822 70.98 555.642 71.3903C556.463 71.8007 557.362 72.0058 558.341 72.0058C559.351 72.0058 560.258 71.7928 561.063 71.3667C561.884 70.9406 562.578 70.3804 563.146 69.686C563.73 68.9759 564.18 68.1789 564.495 67.2952C564.811 66.4115 564.969 65.512 564.969 64.5967C564.969 63.634 564.803 62.7108 564.472 61.8271C564.14 60.9276 563.675 60.1386 563.075 59.46C562.491 58.7656 561.797 58.2133 560.992 57.803C560.187 57.3927 559.303 57.1875 558.341 57.1875C557.331 57.1875 556.416 57.4006 555.595 57.8267C554.774 58.2527 554.072 58.8208 553.488 59.531C552.904 60.2254 552.455 61.0144 552.139 61.8981C551.823 62.7819 551.665 63.6814 551.665 64.5967ZM570.625 73V56.1933H577.608C578.318 56.1933 578.973 56.3432 579.572 56.6431C580.172 56.9429 580.685 57.3453 581.111 57.8503C581.553 58.3395 581.892 58.8998 582.129 59.531C582.381 60.1464 582.508 60.7698 582.508 61.401C582.508 62.0165 582.413 62.6162 582.224 63.2001C582.034 63.7682 581.766 64.281 581.419 64.7387C581.072 65.1963 580.653 65.5751 580.164 65.8749C579.675 66.1748 579.138 66.372 578.554 66.4667L582.744 73H581.348L577.276 66.6561H571.832V73H570.625ZM571.832 65.5435H577.726C578.263 65.5435 578.752 65.4252 579.194 65.1884C579.635 64.9517 580.014 64.644 580.33 64.2653C580.645 63.8707 580.882 63.4289 581.04 62.9397C581.214 62.4347 581.3 61.9218 581.3 61.401C581.3 60.8645 581.198 60.3516 580.993 59.8624C580.803 59.3574 580.535 58.9155 580.188 58.5368C579.856 58.1581 579.462 57.8582 579.004 57.6373C578.562 57.4006 578.081 57.2822 577.56 57.2822H571.832V65.5435ZM602.401 73V58.4658L595.773 69.8044H595.016L588.388 58.4658V73H587.181V56.1933H588.388L595.395 68.2184L602.401 56.1933H603.609V73H602.401ZM614.471 56.1933H615.513L622.614 73H621.336L618.992 67.4609H610.968L608.624 73H607.322L614.471 56.1933ZM618.661 66.4667L614.992 57.661L611.252 66.4667H618.661ZM636.426 57.2822H630.271V73H629.064V57.2822H622.91V56.1933H636.426V57.2822ZM640.224 73V56.1933H641.431V73H640.224ZM653.724 73.1184C652.556 73.1184 651.491 72.8738 650.528 72.3845C649.566 71.8953 648.737 71.2562 648.043 70.4672C647.348 69.6781 646.812 68.7707 646.433 67.745C646.054 66.7192 645.865 65.6698 645.865 64.5967C645.865 63.4762 646.062 62.4031 646.457 61.3774C646.867 60.3516 647.419 59.4442 648.114 58.6551C648.824 57.8661 649.66 57.2428 650.623 56.7851C651.586 56.3117 652.627 56.075 653.748 56.075C654.915 56.075 655.981 56.3275 656.943 56.8325C657.922 57.3217 658.75 57.9687 659.429 58.7735C660.123 59.5783 660.66 60.4936 661.038 61.5194C661.417 62.5294 661.606 63.5551 661.606 64.5967C661.606 65.7329 661.401 66.8139 660.991 67.8396C660.596 68.8654 660.044 69.7728 659.334 70.5618C658.64 71.3351 657.811 71.9585 656.848 72.4319C655.886 72.8895 654.844 73.1184 653.724 73.1184ZM647.072 64.5967C647.072 65.5593 647.23 66.4904 647.546 67.3899C647.877 68.2736 648.335 69.0627 648.919 69.757C649.518 70.4356 650.228 70.98 651.049 71.3903C651.87 71.8007 652.769 72.0058 653.748 72.0058C654.757 72.0058 655.665 71.7928 656.47 71.3667C657.29 70.9406 657.985 70.3804 658.553 69.686C659.137 68.9759 659.586 68.1789 659.902 67.2952C660.218 66.4115 660.375 65.512 660.375 64.5967C660.375 63.634 660.21 62.7108 659.878 61.8271C659.547 60.9276 659.081 60.1386 658.482 59.46C657.898 58.7656 657.204 58.2133 656.399 57.803C655.594 57.3927 654.71 57.1875 653.748 57.1875C652.738 57.1875 651.822 57.4006 651.002 57.8267C650.181 58.2527 649.479 58.8208 648.895 59.531C648.311 60.2254 647.861 61.0144 647.546 61.8981C647.23 62.7819 647.072 63.6814 647.072 64.5967ZM667.239 58.4658V73H666.031V56.1933H666.954L678.743 70.9879V56.1933H679.95V73H678.837L667.239 58.4658Z" fill="#4A4A6F"/>
<path d="M404.598 76.4675L400.546 72.6594C393.272 66.101 387.453 60.283 383.193 55.2055C378.828 50.128 376.646 44.9447 376.542 39.6556C376.646 35.2128 378.101 31.5105 381.011 28.5486C383.92 25.5867 387.557 24.1058 391.921 24C394.415 24 396.701 24.5289 398.883 25.5867C401.065 26.6445 402.935 28.1255 404.598 29.9238C406.157 28.1255 408.027 26.7503 410.313 25.5867C412.495 24.5289 414.885 24 417.275 24C421.639 24.1058 425.276 25.5867 428.185 28.5486C431.095 31.5105 432.55 35.2128 432.654 39.6556C432.55 44.9447 430.368 50.128 426.107 55.2055C421.847 60.283 416.028 66.101 408.754 72.6594L404.598 76.4675Z" fill="#1ABFF3"/>
<defs>
<clipPath id="clip0">
<rect width="352.698" height="75.7864" fill="white"/>
</clipPath>
</defs>
</svg>
