<svg width="54" height="56" viewBox="0 0 54 56" fill="none" xmlns="http://www.w3.org/2000/svg">
<path d="M49.6452 12.5687H48.7742V0H5.22581V12.5687H4.35484C1.95372 12.5687 0 14.5826 0 17.0576V45.7861C0 48.2611 1.95372 50.2749 4.35484 50.2749H15.6774V53.866H12.1935V55.6615H41.8064V53.866H38.3226V50.2749H49.6452C52.0463 50.2749 54 48.2611 54 45.7861V17.0576C54 14.5826 52.0463 12.5687 49.6452 12.5687ZM27.871 37.6606C27.5818 37.6821 27.2943 37.7062 27 37.7062C20.2759 37.7062 14.8065 32.0684 14.8065 25.1375H16.3192C17.7685 25.1375 19.1315 25.9331 19.8851 27.2285C20.7378 28.6917 22.1574 29.7232 23.7811 30.0581C24.9246 30.2944 25.9245 31.0207 26.5245 32.0513L27.2794 33.3484C27.6664 34.013 27.871 34.7731 27.871 35.5481V37.6606ZM28.7734 32.4248L28.0181 31.1273C27.1654 29.664 25.7459 28.6325 24.1221 28.2976C22.9786 28.0613 21.9788 27.3354 21.3702 26.2904C20.3117 24.4712 18.3767 23.3419 16.3192 23.3419H14.9459C15.3614 20.3712 16.7827 17.7379 18.8487 15.817L19.2136 17.072C19.8371 19.2112 21.7117 20.6486 23.8785 20.6486H25.5655C26.8112 20.6486 27.891 19.7785 28.1933 18.5344C28.4038 17.6643 29.1583 17.0576 30.0275 17.0576C30.6051 17.0576 31.1431 17.3241 31.5037 17.7883L33.1125 19.8622C33.9435 20.9323 35.1836 21.5464 36.5126 21.5464H38.6798C38.8478 22.1281 38.969 22.7287 39.0541 23.3419H30.9393C29.4492 23.3419 28.1793 24.3835 27.9207 25.8178C27.6647 27.2429 28.423 28.6667 29.7235 29.2024L30.3741 29.4711C31.4994 29.934 32.2258 31.0413 32.2258 32.2889C32.2258 33.035 32.3963 33.782 32.7204 34.4492L33.3877 35.8234C32.2398 36.5551 30.9717 37.1013 29.6138 37.4081V35.5481C29.6129 34.4474 29.3229 33.3673 28.7734 32.4248ZM20.3231 14.6325C22.2428 13.3319 24.5351 12.5687 27 12.5687C31.852 12.5687 36.038 15.5115 38.0002 19.7509H36.5126C35.7139 19.7509 34.971 19.3826 34.4721 18.7409L32.8633 16.6679C32.1709 15.7736 31.1371 15.262 30.0275 15.262C28.3579 15.262 26.9077 16.4281 26.5029 18.0982C26.3957 18.5423 26.0095 18.8531 25.5655 18.8531H23.8785C22.4865 18.8531 21.283 17.9303 20.8832 16.5556L20.3231 14.6325ZM34.8221 34.767L34.2786 33.6465C34.0758 33.2275 33.9677 32.7575 33.9677 32.2889C33.9677 30.3023 32.811 28.5418 31.0223 27.804L30.3716 27.5353C29.8392 27.3161 29.5291 26.7309 29.6346 26.1457C29.7375 25.571 30.2993 25.1375 30.9393 25.1375H39.1936C39.1936 29.0008 37.4907 32.4586 34.8221 34.767ZM40.9355 25.1375C40.9355 24.8692 40.918 24.6053 40.9006 24.341L40.8832 24.0665C40.8717 23.9101 40.8691 23.7522 40.8526 23.5979L40.8364 23.3419H40.8143C39.9531 16.2676 34.0932 10.7732 27 10.7732C19.9068 10.7732 14.0469 16.2676 13.1857 23.3419H13.1636L13.1474 23.5979C13.1317 23.7522 13.1283 23.9101 13.1168 24.0665L13.0994 24.341C13.082 24.6053 13.0645 24.8692 13.0645 25.1375C13.0645 27.7554 13.7586 30.2036 14.9502 32.3196H6.96774V8.97767H47.0323V32.3196H39.0498C40.2414 30.2036 40.9355 27.7554 40.9355 25.1375ZM47.0323 1.79553V7.18213H6.96774V1.79553H47.0323ZM4.35484 14.3643H5.22581V34.1151H16.1388C18.6952 37.3945 22.6111 39.5017 27 39.5017C31.3889 39.5017 35.3048 37.3945 37.8612 34.1151H48.7742V14.3643H49.6452C51.0856 14.3643 52.2581 15.5728 52.2581 17.0576V41.2973H1.74194V17.0576C1.74194 15.5728 2.91442 14.3643 4.35484 14.3643ZM36.5806 53.866H17.4194V50.2749H36.5806V53.866ZM49.6452 48.4794H4.35484C2.91442 48.4794 1.74194 47.2708 1.74194 45.7861V43.0928H52.2581V45.7861C52.2581 47.2708 51.0856 48.4794 49.6452 48.4794Z" fill="#A09ED5"/>
</svg>
