<svg width="52" height="52" viewBox="0 0 52 52" fill="none" xmlns="http://www.w3.org/2000/svg">
<path d="M20.5166 36.4407C20.3202 36.4407 20.1223 36.3732 19.9609 36.2357L14.4056 31.5054C14.214 31.342 14.1038 31.1034 14.1038 30.8515C14.1038 30.5999 14.2144 30.3614 14.4056 30.198L19.9609 25.4677C20.3216 25.1601 20.8634 25.2037 21.171 25.5645C21.4781 25.9257 21.435 26.4675 21.0737 26.7746L16.2864 30.8515L21.0737 34.9283C21.435 35.2359 21.4781 35.7777 21.171 36.1385C21.0009 36.3382 20.7595 36.4407 20.5166 36.4407Z" fill="#A09ED5"/>
<path d="M31.4834 36.4407C31.2405 36.4407 30.9991 36.3382 30.8295 36.1385C30.5219 35.7777 30.5655 35.2359 30.9262 34.9283L35.7136 30.8515L30.9262 26.7746C30.5655 26.4675 30.5219 25.9257 30.8295 25.5645C31.1366 25.2037 31.6789 25.1601 32.0391 25.4677L37.5944 30.198C37.786 30.3614 37.8962 30.5999 37.8962 30.8515C37.8962 31.1034 37.786 31.342 37.5944 31.5054L32.0391 36.2357C31.8777 36.3732 31.6798 36.4407 31.4834 36.4407Z" fill="#A09ED5"/>
<path d="M24.0335 39.9889C23.9745 39.9889 23.9151 39.9827 23.8552 39.9702C23.3915 39.8725 23.0945 39.4169 23.1922 38.9532L26.6544 22.5149C26.7522 22.0511 27.2073 21.7541 27.6715 21.8519C28.1352 21.9496 28.4323 22.4047 28.3345 22.8689L24.8723 39.3072C24.787 39.7115 24.4306 39.9889 24.0335 39.9889Z" fill="#A09ED5"/>
<path d="M46.2359 48.9444H5.76415C2.58601 48.9444 0 46.3589 0 43.1802V8.83007C0 5.65193 2.58601 3.06592 5.76415 3.06592H46.2359C49.414 3.06592 52 5.65193 52 8.83007V43.1802C52 46.3589 49.414 48.9444 46.2359 48.9444ZM5.76415 4.7829C3.53265 4.7829 1.71698 6.59857 1.71698 8.83007V43.1802C1.71698 45.4117 3.53265 47.2274 5.76415 47.2274H46.2359C48.4674 47.2274 50.283 45.4117 50.283 43.1802V8.83007C50.283 6.59857 48.4674 4.7829 46.2359 4.7829H5.76415Z" fill="#A09ED5"/>
<path d="M51.1415 16.8129H0.858491C0.384213 16.8129 0 16.4287 0 15.9544C0 15.4806 0.384213 15.0959 0.858491 15.0959H51.1415C51.6158 15.0959 52 15.4806 52 15.9544C52 16.4287 51.6158 16.8129 51.1415 16.8129Z" fill="#A09ED5"/>
<path d="M14.6681 12.7048C13.1706 12.7048 11.9513 11.4856 11.9513 9.98804C11.9513 8.48999 13.1706 7.27124 14.6681 7.27124C16.1662 7.27124 17.3849 8.48999 17.3849 9.98804C17.3849 11.4856 16.1662 12.7048 14.6681 12.7048ZM14.6681 8.98822C14.1172 8.98822 13.6683 9.43663 13.6683 9.98804C13.6683 10.5394 14.1172 10.9879 14.6681 10.9879C15.2195 10.9879 15.6679 10.5394 15.6679 9.98804C15.6679 9.43663 15.2195 8.98822 14.6681 8.98822Z" fill="#A09ED5"/>
<path d="M6.32083 12.6785C4.82278 12.6785 3.60403 11.4597 3.60403 9.96167C3.60403 8.46362 4.82278 7.24487 6.32083 7.24487C7.81887 7.24487 9.03762 8.46362 9.03762 9.96167C9.03762 11.4597 7.81887 12.6785 6.32083 12.6785ZM6.32083 8.96185C5.7699 8.96185 5.32101 9.41074 5.32101 9.96167C5.32101 10.5131 5.7699 10.9615 6.32083 10.9615C6.87224 10.9615 7.32064 10.5131 7.32064 9.96167C7.32064 9.41074 6.87224 8.96185 6.32083 8.96185Z" fill="#A09ED5"/>
<path d="M23.0154 12.7307C21.5178 12.7307 20.2991 11.512 20.2991 10.0139C20.2991 8.51636 21.5178 7.29761 23.0154 7.29761C24.5135 7.29761 25.7322 8.51636 25.7322 10.0139C25.7322 11.512 24.5135 12.7307 23.0154 12.7307ZM23.0154 9.01411C22.4645 9.01411 22.0161 9.46252 22.0161 10.0139C22.0161 10.5653 22.4645 11.0137 23.0154 11.0137C23.5668 11.0137 24.0152 10.5653 24.0152 10.0139C24.0152 9.46252 23.5668 9.01411 23.0154 9.01411Z" fill="#A09ED5"/>
</svg>
