<svg width="52" height="52" viewBox="0 0 52 52" fill="none" xmlns="http://www.w3.org/2000/svg">
<path d="M48.184 3.05772H31.5526C31.131 3.05772 30.7894 3.39948 30.7894 3.82096C30.7894 4.24245 31.131 4.5842 31.5526 4.5842H48.1839C49.4463 4.5842 50.4735 5.6113 50.4735 6.87383V33.5855H46.8144L46.8143 10.1401C46.8143 8.87756 45.7871 7.85045 44.5247 7.85045H7.4752C6.21268 7.85045 5.18558 8.87756 5.18558 10.1401V33.5855H1.52638V6.87373C1.52638 5.6112 2.55359 4.5841 3.81601 4.5841H28.4998C28.9213 4.5841 29.263 4.24234 29.263 3.82086C29.263 3.39938 28.9213 3.05762 28.4998 3.05762H3.81601C1.71184 3.05772 0 4.76955 0 6.87373V37.7333C0 39.8375 1.71184 41.5493 3.81601 41.5493H20.5973L19.828 47.4157H17.1161C16.6945 47.4157 16.3529 47.7574 16.3529 48.1789C16.3529 48.6004 16.6945 48.9421 17.1161 48.9421H34.8838C35.3054 48.9421 35.647 48.6004 35.647 48.1789C35.647 47.7574 35.3054 47.4157 34.8838 47.4157H32.172L31.4027 41.5493H39.49C39.9116 41.5493 40.2533 41.2075 40.2533 40.7861C40.2533 40.3646 39.9116 40.0228 39.49 40.0228H3.81601C2.55359 40.0228 1.52638 38.9957 1.52638 37.7332V35.1118H50.4735V37.7332C50.4735 38.9957 49.4463 40.0228 48.1839 40.0228H42.5428C42.1212 40.0228 41.7796 40.3646 41.7796 40.7861C41.7796 41.2075 42.1212 41.5493 42.5428 41.5493H48.1839C50.2881 41.5493 51.9999 39.8375 51.9999 37.7333V6.87373C52 4.76955 50.2882 3.05772 48.184 3.05772ZM30.6325 47.4157H21.3676L22.1369 41.5493H29.8631L30.6325 47.4157ZM6.71196 10.14C6.71196 9.7191 7.05433 9.37673 7.4752 9.37673H44.5248C44.9457 9.37673 45.288 9.7191 45.288 10.14V13.8963H6.71196V10.14ZM6.71196 15.4228H45.288V33.5855H41.5776V30.1832C41.5776 29.7618 41.2359 29.42 40.8143 29.42H27.827C27.4054 29.42 27.0638 29.7618 27.0638 30.1832V33.5855H24.9361V30.1832C24.9361 29.7618 24.5945 29.42 24.1729 29.42H11.1857C10.7641 29.42 10.4224 29.7618 10.4224 30.1832V33.5855H6.71196V15.4228ZM40.0511 33.5854H28.5903V30.9464H40.0511V33.5854ZM23.4097 33.5854H11.9489V30.9464H23.4097V33.5854Z" fill="#A09ED5"/>
<path d="M9.62284 10.4058C8.9765 10.4058 8.45061 10.9317 8.45061 11.5781C8.45061 12.2245 8.9765 12.7503 9.62284 12.7503C10.2692 12.7503 10.7951 12.2244 10.7951 11.5781C10.7952 10.9318 10.2693 10.4058 9.62284 10.4058Z" fill="#A09ED5"/>
<path d="M13.385 10.4058C12.7387 10.4058 12.2128 10.9317 12.2128 11.5781C12.2128 12.2245 12.7387 12.7503 13.385 12.7503C14.0314 12.7503 14.5573 12.2244 14.5573 11.5781C14.5573 10.9318 14.0314 10.4058 13.385 10.4058Z" fill="#A09ED5"/>
<path d="M17.1471 10.4058C16.5008 10.4058 15.9749 10.9317 15.9749 11.5781C15.9749 12.2245 16.5008 12.7503 17.1471 12.7503C17.7936 12.7503 18.3194 12.2244 18.3194 11.5781C18.3194 10.9318 17.7936 10.4058 17.1471 10.4058Z" fill="#A09ED5"/>
<path d="M11.1857 27.5568H16.738C17.1596 27.5568 17.5013 27.2151 17.5013 26.7936C17.5013 26.3721 17.1596 26.0303 16.738 26.0303H11.9488V19.3335H40.0495V26.0303H19.7908C19.3692 26.0303 19.0275 26.3721 19.0275 26.7936C19.0275 27.2151 19.3692 27.5568 19.7908 27.5568H40.8126C41.2342 27.5568 41.5758 27.2151 41.5758 26.7936V18.5704C41.5758 18.1489 41.2342 17.8071 40.8126 17.8071H11.1857C10.7641 17.8071 10.4225 18.1489 10.4225 18.5704V26.7937C10.4225 27.2152 10.7641 27.5568 11.1857 27.5568Z" fill="#A09ED5"/>
</svg>
