<svg width="50" height="50" viewBox="0 0 50 50" fill="none" xmlns="http://www.w3.org/2000/svg">
<path d="M4.77705 4.67837C5.3219 4.67837 5.76358 4.23669 5.76358 3.69185C5.76358 3.147 5.3219 2.70532 4.77705 2.70532C4.23221 2.70532 3.79053 3.147 3.79053 3.69185C3.79053 4.23669 4.23221 4.67837 4.77705 4.67837Z" fill="#A09ED5"/>
<path d="M8.82157 4.67837C9.36641 4.67837 9.80809 4.23669 9.80809 3.69185C9.80809 3.147 9.36641 2.70532 8.82157 2.70532C8.27673 2.70532 7.83505 3.147 7.83505 3.69185C7.83505 4.23669 8.27673 4.67837 8.82157 4.67837Z" fill="#A09ED5"/>
<path d="M12.8662 4.67837C13.411 4.67837 13.8527 4.23669 13.8527 3.69185C13.8527 3.147 13.411 2.70532 12.8662 2.70532C12.3214 2.70532 11.8797 3.147 11.8797 3.69185C11.8797 4.23669 12.3214 4.67837 12.8662 4.67837Z" fill="#A09ED5"/>
<path d="M47.3145 0H2.68555C1.20469 0 0 1.20469 0 2.68555V25.2503C0 25.6548 0.32793 25.9827 0.732422 25.9827C1.13691 25.9827 1.46484 25.6548 1.46484 25.2503V7.38379H48.5352V14.4979C48.5352 14.9024 48.8631 15.2304 49.2676 15.2304C49.6721 15.2304 50 14.9024 50 14.4979V2.68555C50 1.20469 48.7953 0 47.3145 0ZM1.46484 5.91895V2.68555C1.46484 2.0124 2.0124 1.46484 2.68555 1.46484H47.3145C47.9876 1.46484 48.5352 2.0124 48.5352 2.68555V5.91895H1.46484Z" fill="#A09ED5"/>
<path d="M49.2676 17.1956C48.8631 17.1956 48.5352 17.5235 48.5352 17.928V47.3144C48.5352 47.9876 47.9876 48.5351 47.3145 48.5351H2.68555C2.0124 48.5351 1.46484 47.9876 1.46484 47.3144V28.6682C1.46484 28.2637 1.13691 27.9358 0.732422 27.9358C0.32793 27.9358 0 28.2637 0 28.6682V47.3144C0 48.7953 1.20469 50 2.68555 50H47.3145C48.7953 50 50 48.7953 50 47.3144V17.928C50 17.5235 49.6721 17.1956 49.2676 17.1956Z" fill="#A09ED5"/>
<path d="M22.6324 9.66748H4.48107C4.07658 9.66748 3.74865 9.99541 3.74865 10.3999V45.4201C3.74865 45.8246 4.07658 46.1525 4.48107 46.1525H22.6324C23.0369 46.1525 23.3649 45.8246 23.3649 45.4201V45.2829C23.3649 45.2828 23.3649 45.2827 23.3649 45.2826V10.3998C23.3649 9.99541 23.0369 9.66748 22.6324 9.66748ZM5.21349 13.4046L12.7318 27.9101L5.21349 42.4154V13.4046ZM5.68566 11.1323H21.4278L13.5568 26.3185L5.68566 11.1323ZM13.5568 29.5017L21.4278 44.6878H5.68566L13.5568 29.5017ZM14.3817 27.9101L21.8999 13.4047V42.4155L14.3817 27.9101Z" fill="#A09ED5"/>
<path d="M27.3676 29.2837H45.5189C45.9234 29.2837 46.2514 28.9558 46.2514 28.5513V10.3999C46.2514 9.99541 45.9234 9.66748 45.5189 9.66748H27.3676C26.9631 9.66748 26.6352 9.99541 26.6352 10.3999V28.5513C26.6352 28.9558 26.9631 29.2837 27.3676 29.2837ZM44.7865 26.783L37.4791 19.4756L44.7865 12.1682V26.783ZM43.7507 27.8188H29.1358L36.4433 20.5114L43.7507 27.8188ZM36.4433 18.4397L29.1358 11.1323H43.7508L36.4433 18.4397ZM35.4075 19.4756L28.1001 26.783V12.1682L35.4075 19.4756Z" fill="#A09ED5"/>
<path d="M27.3676 32.6379H45.5189C45.9234 32.6379 46.2514 32.31 46.2514 31.9055C46.2514 31.501 45.9234 31.1731 45.5189 31.1731H27.3676C26.9631 31.1731 26.6352 31.501 26.6352 31.9055C26.6352 32.31 26.9631 32.6379 27.3676 32.6379Z" fill="#A09ED5"/>
<path d="M27.3676 36.5837H45.5189C45.9234 36.5837 46.2514 36.2558 46.2514 35.8513C46.2514 35.4468 45.9234 35.1189 45.5189 35.1189H27.3676C26.9631 35.1189 26.6352 35.4468 26.6352 35.8513C26.6352 36.2558 26.9631 36.5837 27.3676 36.5837Z" fill="#A09ED5"/>
<path d="M27.3676 40.5298H37.5283C37.9328 40.5298 38.2607 40.2019 38.2607 39.7974C38.2607 39.3929 37.9328 39.0649 37.5283 39.0649H27.3676C26.9631 39.0649 26.6352 39.3929 26.6352 39.7974C26.6352 40.2019 26.9631 40.5298 27.3676 40.5298Z" fill="#A09ED5"/>
</svg>
